<svg xmlns="http://www.w3.org/2000/svg" xmlns:xlink="http://www.w3.org/1999/xlink" width="1920" zoomAndPan="magnify" viewBox="0 0 1440 809.999993" height="1080" preserveAspectRatio="xMidYMid meet" version="1.0"><defs><clipPath id="46b5cff77c"><path d="M 117.6875 302.253906 L 1338.6875 302.253906 L 1338.6875 760.503906 L 117.6875 760.503906 Z M 117.6875 302.253906 " clip-rule="nonzero"/></clipPath><clipPath id="00030e70d0"><path d="M 1083.167969 391.78125 L 1229.417969 391.78125 L 1229.417969 563.53125 L 1083.167969 563.53125 Z M 1083.167969 391.78125 " clip-rule="nonzero"/></clipPath><clipPath id="a66e980019"><path d="M 1151 391.78125 L 1161 391.78125 L 1161 401 L 1151 401 Z M 1151 391.78125 " clip-rule="nonzero"/></clipPath><clipPath id="b45b407116"><path d="M 1083.167969 426 L 1229.417969 426 L 1229.417969 538 L 1083.167969 538 Z M 1083.167969 426 " clip-rule="nonzero"/></clipPath><clipPath id="c717da7f28"><path d="M 1083.167969 520 L 1092 520 L 1092 530 L 1083.167969 530 Z M 1083.167969 520 " clip-rule="nonzero"/></clipPath><clipPath id="7cbd3e43e3"><path d="M 1134 537 L 1178 537 L 1178 563.53125 L 1134 563.53125 Z M 1134 537 " clip-rule="nonzero"/></clipPath></defs><path fill="#ff5757" d="M 148.234375 577.03125 L 148.234375 393.835938 L 178.769531 393.835938 L 178.769531 363.300781 L 209.300781 363.300781 L 209.300781 332.769531 L 1247.402344 332.769531 L 1247.402344 363.300781 L 1277.9375 363.300781 L 1277.9375 393.835938 L 1308.46875 393.835938 L 1308.46875 577.03125 L 1277.9375 577.03125 L 1277.9375 607.566406 L 1247.402344 607.566406 L 1247.402344 638.097656 L 1125.273438 638.097656 L 1125.273438 729.699219 L 1094.738281 729.699219 L 1094.738281 699.164062 L 1064.207031 699.164062 L 1064.207031 668.628906 L 1033.671875 668.628906 L 1033.671875 638.097656 L 209.300781 638.097656 L 209.300781 607.566406 L 178.769531 607.566406 L 178.769531 577.03125 Z M 148.234375 577.03125 " fill-opacity="1" fill-rule="evenodd"/><g clip-path="url(#46b5cff77c)"><path fill="#c1ff72" d="M 148.234375 363.300781 L 178.769531 363.300781 L 178.769531 332.769531 L 209.300781 332.769531 L 209.300781 302.238281 C 555.339844 302.238281 901.371094 302.238281 1247.40625 302.238281 L 1247.40625 363.300781 L 1277.941406 363.300781 L 1277.941406 393.835938 L 1308.472656 393.835938 C 1308.472656 454.902344 1308.472656 515.964844 1308.472656 577.03125 L 1308.472656 607.566406 L 1277.941406 607.566406 L 1277.941406 638.097656 L 1247.40625 638.097656 C 1216.875 638.097656 1186.34375 638.097656 1155.808594 638.097656 L 1125.277344 638.097656 L 1125.277344 729.695312 L 1094.742188 729.695312 L 1094.742188 699.164062 L 1064.210938 699.164062 L 1064.210938 668.628906 L 1033.679688 668.628906 L 1033.679688 638.097656 C 758.882812 638.097656 484.101562 638.097656 209.300781 638.097656 L 209.300781 607.566406 L 178.769531 607.566406 L 178.769531 577.03125 L 117.703125 577.03125 C 117.703125 515.964844 117.703125 454.902344 117.703125 393.835938 L 148.234375 393.835938 Z M 1033.671875 668.628906 L 1033.671875 699.164062 L 1064.207031 699.164062 L 1064.207031 729.695312 L 1094.738281 729.695312 L 1094.738281 760.230469 L 1125.273438 760.230469 L 1125.273438 729.695312 L 1155.804688 729.695312 L 1155.804688 668.628906 C 1186.335938 668.628906 1216.871094 668.628906 1247.402344 668.628906 L 1247.402344 607.566406 L 1277.9375 607.566406 L 1277.9375 577.03125 L 1339 577.03125 C 1339 515.964844 1339 454.902344 1339 393.835938 L 1308.46875 393.835938 L 1308.46875 363.300781 L 1277.9375 363.300781 L 1277.9375 332.769531 L 1247.402344 332.769531 C 901.367188 332.769531 555.332031 332.769531 209.296875 332.769531 L 209.296875 363.300781 L 178.765625 363.300781 L 178.765625 393.835938 L 148.230469 393.835938 C 148.230469 454.902344 148.230469 515.964844 148.230469 577.03125 L 148.230469 607.566406 L 178.765625 607.566406 L 178.765625 638.097656 L 209.296875 638.097656 L 209.296875 668.628906 C 484.097656 668.628906 758.878906 668.628906 1033.671875 668.628906 Z M 1033.671875 668.628906 " fill-opacity="1" fill-rule="evenodd"/></g><g clip-path="url(#00030e70d0)"><path fill="#1c7038" d="M 1220.8125 520.59375 L 1220.8125 512.003906 L 1212.214844 512.003906 L 1212.214844 503.417969 L 1203.609375 503.417969 L 1203.609375 494.828125 L 1195.007812 494.828125 L 1195.007812 486.242188 L 1220.8125 486.242188 L 1220.8125 477.65625 L 1212.214844 477.65625 L 1212.214844 469.066406 L 1203.609375 469.066406 L 1203.609375 460.480469 L 1195.007812 460.480469 L 1195.007812 451.890625 L 1186.402344 451.890625 L 1186.402344 443.304688 L 1203.609375 443.304688 L 1203.609375 434.714844 L 1195.007812 434.714844 L 1195.007812 426.132812 L 1186.402344 426.132812 L 1186.402344 417.546875 L 1177.804688 417.546875 L 1177.804688 408.957031 L 1169.199219 408.957031 L 1169.199219 400.371094 L 1160.597656 400.371094 L 1160.597656 391.78125 L 1151.992188 391.78125 L 1151.992188 400.371094 L 1143.390625 400.371094 L 1143.390625 408.957031 L 1134.785156 408.957031 L 1134.785156 417.546875 L 1126.1875 417.546875 L 1126.1875 426.132812 L 1117.582031 426.132812 L 1117.582031 434.714844 L 1108.980469 434.714844 L 1108.980469 443.304688 L 1126.1875 443.304688 L 1126.1875 451.890625 L 1117.582031 451.890625 L 1117.582031 460.480469 L 1108.980469 460.480469 L 1108.980469 469.066406 L 1100.382812 469.066406 L 1100.382812 477.65625 L 1091.773438 477.65625 L 1091.773438 486.242188 L 1117.582031 486.242188 L 1117.582031 494.828125 L 1108.980469 494.828125 L 1108.980469 503.417969 L 1100.382812 503.417969 L 1100.382812 512.003906 L 1091.773438 512.003906 L 1091.773438 520.59375 L 1083.175781 520.59375 L 1083.175781 537.761719 L 1143.390625 537.761719 L 1143.390625 554.9375 L 1134.785156 554.9375 L 1134.785156 563.527344 L 1177.804688 563.527344 L 1177.804688 554.9375 L 1169.199219 554.9375 L 1169.199219 537.761719 L 1229.414062 537.761719 L 1229.414062 520.59375 Z M 1220.8125 520.59375 " fill-opacity="1" fill-rule="nonzero"/></g><path fill="#a0e530" d="M 1151.992188 451.890625 L 1160.597656 451.890625 L 1160.597656 460.480469 L 1151.992188 460.480469 Z M 1151.992188 451.890625 " fill-opacity="1" fill-rule="nonzero"/><path fill="#a0e530" d="M 1151.992188 426.132812 L 1160.597656 426.132812 L 1160.597656 434.714844 L 1151.992188 434.714844 Z M 1151.992188 426.132812 " fill-opacity="1" fill-rule="nonzero"/><g clip-path="url(#a66e980019)"><path fill="#a0e530" d="M 1151.992188 391.78125 L 1160.597656 391.78125 L 1160.597656 400.371094 L 1151.992188 400.371094 Z M 1151.992188 391.78125 " fill-opacity="1" fill-rule="nonzero"/></g><path fill="#a0e530" d="M 1143.390625 494.828125 L 1151.992188 494.828125 L 1151.992188 503.417969 L 1143.390625 503.417969 Z M 1143.390625 494.828125 " fill-opacity="1" fill-rule="nonzero"/><path fill="#a0e530" d="M 1143.390625 443.304688 L 1151.992188 443.304688 L 1151.992188 451.890625 L 1143.390625 451.890625 Z M 1143.390625 443.304688 " fill-opacity="1" fill-rule="nonzero"/><path fill="#a0e530" d="M 1143.390625 400.371094 L 1151.992188 400.371094 L 1151.992188 408.957031 L 1143.390625 408.957031 Z M 1143.390625 400.371094 " fill-opacity="1" fill-rule="nonzero"/><path fill="#a0e530" d="M 1134.785156 460.480469 L 1143.390625 460.480469 L 1143.390625 469.066406 L 1134.785156 469.066406 Z M 1134.785156 460.480469 " fill-opacity="1" fill-rule="nonzero"/><path fill="#a0e530" d="M 1134.785156 417.546875 L 1126.1875 417.546875 L 1126.1875 426.132812 L 1143.390625 426.132812 L 1143.390625 408.957031 L 1134.785156 408.957031 Z M 1134.785156 417.546875 " fill-opacity="1" fill-rule="nonzero"/><path fill="#a0e530" d="M 1117.582031 503.417969 L 1126.1875 503.417969 L 1126.1875 512.003906 L 1117.582031 512.003906 Z M 1117.582031 503.417969 " fill-opacity="1" fill-rule="nonzero"/><path fill="#a0e530" d="M 1117.582031 477.65625 L 1126.1875 477.65625 L 1126.1875 486.242188 L 1117.582031 486.242188 Z M 1117.582031 477.65625 " fill-opacity="1" fill-rule="nonzero"/><path fill="#a0e530" d="M 1117.582031 426.132812 L 1126.1875 426.132812 L 1126.1875 434.714844 L 1117.582031 434.714844 Z M 1117.582031 426.132812 " fill-opacity="1" fill-rule="nonzero"/><path fill="#a0e530" d="M 1108.980469 494.828125 L 1117.582031 494.828125 L 1117.582031 503.417969 L 1108.980469 503.417969 Z M 1108.980469 494.828125 " fill-opacity="1" fill-rule="nonzero"/><path fill="#a0e530" d="M 1108.980469 469.066406 L 1117.582031 469.066406 L 1117.582031 477.65625 L 1108.980469 477.65625 Z M 1108.980469 469.066406 " fill-opacity="1" fill-rule="nonzero"/><path fill="#a0e530" d="M 1108.980469 434.714844 L 1117.582031 434.714844 L 1117.582031 443.308594 L 1108.980469 443.308594 Z M 1108.980469 434.714844 " fill-opacity="1" fill-rule="nonzero"/><path fill="#a0e530" d="M 1100.382812 503.417969 L 1108.980469 503.417969 L 1108.980469 512.003906 L 1100.382812 512.003906 Z M 1100.382812 503.417969 " fill-opacity="1" fill-rule="nonzero"/><path fill="#a0e530" d="M 1091.773438 477.65625 L 1100.378906 477.65625 L 1100.378906 486.242188 L 1091.773438 486.242188 Z M 1091.773438 477.65625 " fill-opacity="1" fill-rule="nonzero"/><g clip-path="url(#b45b407116)"><path fill="#2e6124" d="M 1220.8125 520.59375 L 1220.8125 512.003906 L 1212.214844 512.003906 L 1212.214844 503.417969 L 1203.609375 503.417969 L 1203.609375 494.828125 L 1195.007812 494.828125 L 1195.007812 486.242188 L 1220.8125 486.242188 L 1220.8125 477.65625 L 1212.214844 477.65625 L 1212.214844 469.066406 L 1203.609375 469.066406 L 1203.609375 460.480469 L 1195.007812 460.480469 L 1195.007812 451.890625 L 1186.402344 451.890625 L 1186.402344 443.304688 L 1203.609375 443.304688 L 1203.609375 434.714844 L 1195.007812 434.714844 L 1195.007812 426.132812 L 1186.402344 426.132812 L 1186.402344 434.714844 L 1177.804688 434.714844 L 1177.804688 443.304688 L 1169.199219 443.304688 L 1169.199219 451.890625 L 1177.804688 451.890625 L 1177.804688 460.480469 L 1186.402344 460.480469 L 1186.402344 469.066406 L 1195.007812 469.066406 L 1195.007812 477.65625 L 1177.804688 477.65625 L 1177.804688 486.242188 L 1169.199219 486.242188 L 1169.199219 494.828125 L 1186.402344 494.828125 L 1186.402344 503.417969 L 1195.007812 503.417969 L 1195.007812 512.003906 L 1203.609375 512.003906 L 1203.609375 529.179688 L 1195.007812 529.179688 L 1195.007812 520.59375 L 1186.402344 520.59375 L 1186.402344 529.179688 L 1177.804688 529.179688 L 1177.804688 520.59375 L 1169.199219 520.59375 L 1169.199219 529.179688 L 1160.597656 529.179688 L 1160.597656 520.59375 L 1151.992188 520.59375 L 1151.992188 529.179688 L 1143.390625 529.179688 L 1143.390625 520.59375 L 1134.785156 520.59375 L 1134.785156 529.179688 L 1126.1875 529.179688 L 1126.1875 520.59375 L 1117.582031 520.59375 L 1117.582031 529.179688 L 1108.980469 529.179688 L 1108.980469 520.59375 L 1100.382812 520.59375 L 1100.382812 529.179688 L 1083.175781 529.179688 L 1083.175781 537.761719 L 1229.414062 537.761719 L 1229.414062 520.59375 Z M 1220.8125 520.59375 " fill-opacity="1" fill-rule="nonzero"/></g><path fill="#2e6124" d="M 1177.804688 417.546875 L 1186.402344 417.546875 L 1186.402344 426.132812 L 1177.804688 426.132812 Z M 1177.804688 417.546875 " fill-opacity="1" fill-rule="nonzero"/><path fill="#2e6124" d="M 1169.199219 408.957031 L 1177.804688 408.957031 L 1177.804688 417.546875 L 1169.199219 417.546875 Z M 1169.199219 408.957031 " fill-opacity="1" fill-rule="nonzero"/><path fill="#b94021" d="M 1169.199219 477.65625 L 1177.804688 477.65625 L 1177.804688 486.242188 L 1169.199219 486.242188 Z M 1169.199219 477.65625 " fill-opacity="1" fill-rule="nonzero"/><path fill="#b94021" d="M 1160.597656 417.546875 L 1169.199219 417.546875 L 1169.199219 426.132812 L 1160.597656 426.132812 Z M 1160.597656 417.546875 " fill-opacity="1" fill-rule="nonzero"/><path fill="#b94021" d="M 1195.007812 520.59375 L 1203.609375 520.59375 L 1203.609375 529.179688 L 1195.007812 529.179688 Z M 1195.007812 520.59375 " fill-opacity="1" fill-rule="nonzero"/><path fill="#b94021" d="M 1160.597656 503.417969 L 1169.199219 503.417969 L 1169.199219 512.003906 L 1160.597656 512.003906 Z M 1160.597656 503.417969 " fill-opacity="1" fill-rule="nonzero"/><path fill="#b94021" d="M 1151.992188 460.480469 L 1160.597656 460.480469 L 1160.597656 469.066406 L 1151.992188 469.066406 Z M 1151.992188 460.480469 " fill-opacity="1" fill-rule="nonzero"/><path fill="#b94021" d="M 1134.785156 434.714844 L 1143.390625 434.714844 L 1143.390625 443.308594 L 1134.785156 443.308594 Z M 1134.785156 434.714844 " fill-opacity="1" fill-rule="nonzero"/><path fill="#b94021" d="M 1126.1875 486.242188 L 1134.785156 486.242188 L 1134.785156 494.828125 L 1126.1875 494.828125 Z M 1126.1875 486.242188 " fill-opacity="1" fill-rule="nonzero"/><path fill="#b94021" d="M 1108.980469 520.59375 L 1117.582031 520.59375 L 1117.582031 529.179688 L 1108.980469 529.179688 Z M 1108.980469 520.59375 " fill-opacity="1" fill-rule="nonzero"/><path fill="#b94021" d="M 1177.804688 460.480469 L 1186.402344 460.480469 L 1186.402344 469.066406 L 1177.804688 469.066406 Z M 1177.804688 460.480469 " fill-opacity="1" fill-rule="nonzero"/><path fill="#b94021" d="M 1143.390625 512.003906 L 1151.992188 512.003906 L 1151.992188 520.59375 L 1143.390625 520.59375 Z M 1143.390625 512.003906 " fill-opacity="1" fill-rule="nonzero"/><path fill="#60b630" d="M 1160.597656 469.066406 L 1169.199219 469.066406 L 1169.199219 451.890625 L 1160.597656 451.890625 Z M 1160.597656 469.066406 " fill-opacity="1" fill-rule="nonzero"/><path fill="#60b630" d="M 1151.992188 469.066406 L 1160.597656 469.066406 L 1160.597656 477.65625 L 1151.992188 477.65625 Z M 1151.992188 469.066406 " fill-opacity="1" fill-rule="nonzero"/><path fill="#60b630" d="M 1143.390625 503.417969 L 1151.992188 503.417969 L 1151.992188 512.003906 L 1143.390625 512.003906 Z M 1143.390625 503.417969 " fill-opacity="1" fill-rule="nonzero"/><path fill="#60b630" d="M 1134.785156 503.417969 L 1143.390625 503.417969 L 1143.390625 494.828125 L 1151.992188 494.828125 L 1151.992188 503.417969 L 1177.804688 503.417969 L 1177.804688 494.828125 L 1160.597656 494.828125 L 1160.597656 486.242188 L 1151.992188 486.242188 L 1151.992188 477.65625 L 1143.390625 477.65625 L 1143.390625 469.066406 L 1126.1875 469.066406 L 1126.1875 460.480469 L 1143.390625 460.480469 L 1143.390625 469.066406 L 1151.992188 469.066406 L 1151.992188 451.890625 L 1134.785156 451.890625 L 1134.785156 434.714844 L 1143.390625 434.714844 L 1143.390625 443.304688 L 1151.992188 443.304688 L 1151.992188 451.890625 L 1160.597656 451.890625 L 1160.597656 443.304688 L 1169.199219 443.304688 L 1169.199219 434.714844 L 1177.804688 434.714844 L 1177.804688 426.132812 L 1160.597656 426.132812 L 1160.597656 434.714844 L 1151.992188 434.714844 L 1151.992188 426.132812 L 1160.597656 426.132812 L 1160.597656 408.957031 L 1169.199219 408.957031 L 1169.199219 400.371094 L 1151.992188 400.371094 L 1151.992188 408.957031 L 1143.390625 408.957031 L 1143.390625 426.132812 L 1126.1875 426.132812 L 1126.1875 434.714844 L 1117.582031 434.714844 L 1117.582031 443.304688 L 1126.1875 443.304688 L 1126.1875 451.890625 L 1117.582031 451.890625 L 1117.582031 460.480469 L 1108.980469 460.480469 L 1108.980469 469.066406 L 1117.582031 469.066406 L 1117.582031 477.65625 L 1126.1875 477.65625 L 1126.1875 486.242188 L 1134.785156 486.242188 L 1134.785156 494.828125 L 1117.582031 494.828125 L 1117.582031 503.417969 L 1126.1875 503.417969 L 1126.1875 512.003906 L 1134.785156 512.003906 Z M 1134.785156 503.417969 " fill-opacity="1" fill-rule="nonzero"/><path fill="#60b630" d="M 1108.980469 469.066406 L 1100.382812 469.066406 L 1100.382812 486.242188 L 1117.582031 486.242188 L 1117.582031 477.65625 L 1108.980469 477.65625 Z M 1108.980469 469.066406 " fill-opacity="1" fill-rule="nonzero"/><path fill="#60b630" d="M 1177.804688 520.59375 L 1186.402344 520.59375 L 1186.402344 529.179688 L 1177.804688 529.179688 Z M 1177.804688 520.59375 " fill-opacity="1" fill-rule="nonzero"/><path fill="#60b630" d="M 1160.597656 520.59375 L 1169.199219 520.59375 L 1169.199219 529.179688 L 1160.597656 529.179688 Z M 1160.597656 520.59375 " fill-opacity="1" fill-rule="nonzero"/><path fill="#60b630" d="M 1143.390625 520.59375 L 1151.992188 520.59375 L 1151.992188 529.179688 L 1143.390625 529.179688 Z M 1143.390625 520.59375 " fill-opacity="1" fill-rule="nonzero"/><path fill="#60b630" d="M 1126.1875 520.59375 L 1134.785156 520.59375 L 1134.785156 529.179688 L 1126.1875 529.179688 Z M 1126.1875 520.59375 " fill-opacity="1" fill-rule="nonzero"/><path fill="#60b630" d="M 1186.402344 512.003906 L 1195.007812 512.003906 L 1195.007812 520.59375 L 1186.402344 520.59375 Z M 1186.402344 512.003906 " fill-opacity="1" fill-rule="nonzero"/><path fill="#60b630" d="M 1151.992188 512.003906 L 1160.597656 512.003906 L 1160.597656 520.59375 L 1151.992188 520.59375 Z M 1151.992188 512.003906 " fill-opacity="1" fill-rule="nonzero"/><path fill="#60b630" d="M 1134.785156 512.003906 L 1143.390625 512.003906 L 1143.390625 520.59375 L 1134.785156 520.59375 Z M 1134.785156 512.003906 " fill-opacity="1" fill-rule="nonzero"/><path fill="#60b630" d="M 1177.804688 503.417969 L 1186.402344 503.417969 L 1186.402344 512.003906 L 1177.804688 512.003906 Z M 1177.804688 503.417969 " fill-opacity="1" fill-rule="nonzero"/><path fill="#60b630" d="M 1169.199219 512.003906 L 1177.804688 512.003906 L 1177.804688 520.59375 L 1169.199219 520.59375 Z M 1169.199219 512.003906 " fill-opacity="1" fill-rule="nonzero"/><path fill="#60b630" d="M 1117.582031 512.003906 L 1126.1875 512.003906 L 1126.1875 520.59375 L 1117.582031 520.59375 Z M 1117.582031 512.003906 " fill-opacity="1" fill-rule="nonzero"/><path fill="#60b630" d="M 1100.382812 512.003906 L 1108.980469 512.003906 L 1108.980469 520.59375 L 1100.382812 520.59375 Z M 1100.382812 512.003906 " fill-opacity="1" fill-rule="nonzero"/><path fill="#60b630" d="M 1091.773438 520.59375 L 1100.378906 520.59375 L 1100.378906 529.179688 L 1091.773438 529.179688 Z M 1091.773438 520.59375 " fill-opacity="1" fill-rule="nonzero"/><path fill="#448423" d="M 1169.199219 503.417969 L 1177.804688 503.417969 L 1177.804688 512.003906 L 1169.199219 512.003906 Z M 1169.199219 503.417969 " fill-opacity="1" fill-rule="nonzero"/><path fill="#448423" d="M 1151.992188 503.417969 L 1160.597656 503.417969 L 1160.597656 512.003906 L 1151.992188 512.003906 Z M 1151.992188 503.417969 " fill-opacity="1" fill-rule="nonzero"/><path fill="#448423" d="M 1195.007812 512.003906 L 1203.609375 512.003906 L 1203.609375 520.59375 L 1195.007812 520.59375 Z M 1195.007812 512.003906 " fill-opacity="1" fill-rule="nonzero"/><path fill="#448423" d="M 1186.402344 503.417969 L 1195.007812 503.417969 L 1195.007812 512.003906 L 1186.402344 512.003906 Z M 1186.402344 503.417969 " fill-opacity="1" fill-rule="nonzero"/><path fill="#448423" d="M 1177.804688 512.003906 L 1186.402344 512.003906 L 1186.402344 520.59375 L 1177.804688 520.59375 Z M 1177.804688 512.003906 " fill-opacity="1" fill-rule="nonzero"/><path fill="#448423" d="M 1177.804688 494.828125 L 1186.402344 494.828125 L 1186.402344 503.417969 L 1177.804688 503.417969 Z M 1177.804688 494.828125 " fill-opacity="1" fill-rule="nonzero"/><path fill="#448423" d="M 1177.804688 426.132812 L 1186.402344 426.132812 L 1186.402344 434.714844 L 1177.804688 434.714844 Z M 1177.804688 426.132812 " fill-opacity="1" fill-rule="nonzero"/><path fill="#448423" d="M 1169.199219 434.714844 L 1177.804688 434.714844 L 1177.804688 443.308594 L 1169.199219 443.308594 Z M 1169.199219 434.714844 " fill-opacity="1" fill-rule="nonzero"/><path fill="#448423" d="M 1169.199219 417.546875 L 1177.804688 417.546875 L 1177.804688 426.132812 L 1169.199219 426.132812 Z M 1169.199219 417.546875 " fill-opacity="1" fill-rule="nonzero"/><path fill="#448423" d="M 1160.597656 512.003906 L 1169.199219 512.003906 L 1169.199219 520.59375 L 1160.597656 520.59375 Z M 1160.597656 512.003906 " fill-opacity="1" fill-rule="nonzero"/><path fill="#448423" d="M 1160.597656 443.304688 L 1169.199219 443.304688 L 1169.199219 451.890625 L 1160.597656 451.890625 Z M 1160.597656 443.304688 " fill-opacity="1" fill-rule="nonzero"/><path fill="#448423" d="M 1160.597656 408.957031 L 1169.199219 408.957031 L 1169.199219 417.546875 L 1160.597656 417.546875 Z M 1160.597656 408.957031 " fill-opacity="1" fill-rule="nonzero"/><path fill="#448423" d="M 1160.597656 486.242188 L 1160.597656 494.828125 L 1169.199219 494.828125 L 1169.199219 477.65625 L 1195.007812 477.65625 L 1195.007812 469.066406 L 1177.804688 469.066406 L 1177.804688 451.890625 L 1169.199219 451.890625 L 1169.199219 469.066406 L 1160.597656 469.066406 L 1160.597656 477.65625 L 1151.992188 477.65625 L 1151.992188 486.242188 Z M 1160.597656 486.242188 " fill-opacity="1" fill-rule="nonzero"/><path fill="#448423" d="M 1143.390625 469.066406 L 1151.992188 469.066406 L 1151.992188 477.65625 L 1143.390625 477.65625 Z M 1143.390625 469.066406 " fill-opacity="1" fill-rule="nonzero"/><path fill="#448423" d="M 1134.785156 503.417969 L 1143.390625 503.417969 L 1143.390625 512.003906 L 1134.785156 512.003906 Z M 1134.785156 503.417969 " fill-opacity="1" fill-rule="nonzero"/><path fill="#448423" d="M 1134.785156 443.304688 L 1143.390625 443.304688 L 1143.390625 451.890625 L 1134.785156 451.890625 Z M 1134.785156 443.304688 " fill-opacity="1" fill-rule="nonzero"/><path fill="#448423" d="M 1126.1875 512.003906 L 1134.785156 512.003906 L 1134.785156 520.59375 L 1126.1875 520.59375 Z M 1126.1875 512.003906 " fill-opacity="1" fill-rule="nonzero"/><path fill="#448423" d="M 1126.1875 460.480469 L 1134.785156 460.480469 L 1134.785156 469.066406 L 1126.1875 469.066406 Z M 1126.1875 460.480469 " fill-opacity="1" fill-rule="nonzero"/><path fill="#448423" d="M 1117.582031 486.242188 L 1126.1875 486.242188 L 1126.1875 494.828125 L 1117.582031 494.828125 Z M 1117.582031 486.242188 " fill-opacity="1" fill-rule="nonzero"/><path fill="#448423" d="M 1108.980469 512.003906 L 1108.980469 520.59375 L 1117.582031 520.59375 L 1117.582031 503.417969 L 1108.980469 503.417969 Z M 1108.980469 512.003906 " fill-opacity="1" fill-rule="nonzero"/><path fill="#448423" d="M 1091.773438 512.003906 L 1100.378906 512.003906 L 1100.378906 520.59375 L 1091.773438 520.59375 Z M 1091.773438 512.003906 " fill-opacity="1" fill-rule="nonzero"/><g clip-path="url(#c717da7f28)"><path fill="#448423" d="M 1083.175781 520.59375 L 1091.773438 520.59375 L 1091.773438 529.179688 L 1083.175781 529.179688 Z M 1083.175781 520.59375 " fill-opacity="1" fill-rule="nonzero"/></g><g clip-path="url(#7cbd3e43e3)"><path fill="#533920" d="M 1169.199219 554.9375 L 1169.199219 537.761719 L 1143.390625 537.761719 L 1143.390625 554.9375 L 1134.785156 554.9375 L 1134.785156 563.527344 L 1177.804688 563.527344 L 1177.804688 554.9375 Z M 1169.199219 554.9375 " fill-opacity="1" fill-rule="nonzero"/></g></svg>